<?xml version="1.0" standalone="no"?>
<!DOCTYPE svg PUBLIC "-//W3C//DTD SVG 20010904//EN"
 "http://www.w3.org/TR/2001/REC-SVG-20010904/DTD/svg10.dtd">
<svg version="1.0" xmlns="http://www.w3.org/2000/svg"
 width="640.000000pt" height="640.000000pt" viewBox="0 0 640.000000 640.000000"
 preserveAspectRatio="xMidYMid meet">
<metadata>
Created by potrace 1.14, written by Peter Selinger 2001-2017
</metadata>
<g transform="translate(0.000000,640.000000) scale(0.100000,-0.100000)"
fill="#000000" stroke="none">
<path d="M3673 6347 c-22 -28 -48 -67 -57 -86 -17 -33 -19 -33 -68 -28 -78 10
-294 -10 -398 -37 -207 -52 -456 -169 -686 -322 -124 -82 -164 -104 -192 -104
-30 0 -33 -2 -22 -15 15 -18 18 -14 -47 -55 -71 -43 -67 -47 6 -7 58 31 59 32
80 13 12 -11 21 -22 21 -26 0 -3 -19 -17 -42 -30 -24 -13 -79 -47 -123 -75
-85 -55 -247 -145 -260 -145 -16 0 40 53 140 133 120 95 136 111 70 67 -59
-39 -139 -104 -215 -175 -37 -35 -80 -62 -132 -83 -167 -69 -376 -108 -460
-84 -21 6 -38 8 -38 6 0 -3 17 -12 38 -21 28 -12 78 -16 214 -17 98 0 178 -3
178 -5 0 -3 -6 -12 -12 -21 -7 -9 -2 -5 10 9 16 16 52 31 111 47 48 12 103 30
122 38 19 9 25 14 14 10 -115 -33 -220 -54 -311 -63 -118 -11 -159 -1 -71 17
144 29 388 141 637 292 147 90 150 91 174 75 14 -10 44 -22 66 -29 l40 -12
-50 -29 c-27 -16 -50 -32 -50 -36 0 -3 -18 -37 -39 -75 -22 -38 -42 -80 -46
-94 -3 -14 10 7 30 47 44 89 107 154 180 184 53 22 71 39 40 39 -8 0 -15 7
-15 15 0 9 -10 15 -26 15 -44 0 -110 21 -139 44 -32 25 -27 46 11 46 14 0 24
6 24 14 0 18 91 84 225 163 233 138 470 231 673 263 57 10 300 15 308 8 4 -5
-27 -101 -38 -114 -4 -6 -68 -14 -154 -18 -230 -11 -384 -46 -586 -132 -44
-19 -83 -34 -88 -34 -4 0 -11 10 -14 23 -6 21 -8 19 -31 -18 -14 -22 -22 -47
-20 -56 7 -21 -8 -33 -75 -58 -34 -13 -81 -22 -125 -22 l-70 -2 85 -7 c91 -7
152 -29 187 -67 13 -15 24 -20 28 -13 3 5 -1 18 -11 27 -13 14 -15 29 -11 82
3 36 11 78 18 92 l13 26 25 -36 c64 -94 79 -118 89 -146 6 -16 11 -23 11 -15
0 8 -10 39 -24 68 -13 28 -23 52 -22 53 15 6 187 19 187 14 0 -20 -44 -89 -82
-130 -26 -27 -43 -51 -38 -53 5 -2 2 -14 -6 -28 -9 -13 -12 -24 -6 -24 6 0 13
4 16 9 7 11 66 -16 83 -38 12 -16 63 -118 63 -126 0 -3 -17 -5 -38 -5 -33 0
-46 7 -83 45 -24 25 -50 45 -56 45 -13 0 -15 -6 -34 -112 -6 -38 -16 -68 -21
-68 -6 0 -8 -6 -5 -14 3 -8 -1 -17 -10 -20 -9 -4 -13 -13 -9 -22 3 -8 2 -13
-3 -10 -10 7 -62 -54 -56 -65 6 -9 -41 -44 -73 -54 -20 -6 -23 -4 -19 12 3 10
8 49 12 87 4 37 18 98 31 134 13 37 24 75 24 85 0 29 -32 16 -59 -23 -13 -19
-51 -63 -84 -97 -66 -68 -128 -100 -209 -110 -48 -6 -51 -5 -44 13 18 43 16
57 -3 24 -11 -19 -20 -39 -21 -44 0 -5 29 -6 65 -4 36 3 65 5 65 4 0 -1 -26
-54 -58 -117 -32 -63 -77 -172 -100 -243 -43 -130 -96 -365 -89 -395 2 -9 7 7
11 34 25 169 114 451 189 600 58 117 69 129 136 154 36 13 74 36 99 61 l40 40
-4 -43 c-2 -23 -5 -69 -8 -102 -2 -33 -7 -68 -11 -77 -21 -52 99 11 157 83 39
47 78 135 78 174 0 29 15 41 24 19 3 -8 11 -12 16 -9 6 4 9 2 8 -5 -2 -6 9
-18 23 -27 21 -13 40 -14 103 -8 l78 7 -20 21 c-24 27 -52 81 -52 102 0 8 -3
15 -7 15 -5 0 -15 13 -25 29 -9 16 -31 37 -50 47 -18 9 -34 18 -36 19 -1 1 12
18 30 38 36 39 78 104 59 93 -14 -9 -14 -1 0 25 5 11 13 17 18 15 4 -3 17 15
29 39 20 41 24 44 89 58 134 30 223 40 315 34 122 -7 155 -19 163 -60 10 -50
46 -156 54 -161 4 -3 -3 32 -16 77 -30 102 -39 213 -24 292 15 79 68 189 120
248 26 29 37 47 28 47 -8 0 -32 -24 -54 -53z m-687 -484 c-8 -15 -15 -25 -16
-21 0 12 23 58 27 54 3 -2 -2 -17 -11 -33z m-181 17 c-3 -5 -19 -10 -36 -10
-16 0 -29 5 -29 10 0 6 16 10 36 10 21 0 33 -4 29 -10z m-155 -100 c0 -35 -4
-36 -55 -11 l-38 18 29 11 c51 19 64 15 64 -18z m266 -45 c-15 -19 -31 -33
-35 -30 -5 2 6 20 23 39 40 43 47 37 12 -9z"/>
<path d="M3781 6354 c-79 -89 -117 -198 -128 -356 l-6 -98 46 0 c107 0 369
-78 537 -161 233 -114 330 -204 521 -487 78 -114 99 -162 208 -467 58 -161 50
-111 -13 78 -69 209 -114 309 -195 432 -36 55 -68 103 -69 107 -4 9 78 -24
121 -48 16 -9 30 -14 32 -12 8 8 -167 208 -262 299 -165 158 -271 226 -560
361 -51 23 -263 78 -304 78 -19 0 -29 5 -29 15 0 28 24 105 33 105 5 0 7 6 4
14 -7 17 37 93 81 141 19 20 32 39 29 41 -2 3 -23 -16 -46 -42z"/>
<path d="M4679 6347 c23 -29 47 -73 56 -96 31 -90 13 -234 -41 -328 -14 -24
-22 -43 -19 -43 17 0 81 85 110 145 38 80 55 152 55 231 0 64 -18 144 -32 144
-6 0 -7 -7 -2 -17 14 -32 17 -176 4 -232 -12 -55 -59 -175 -67 -168 -2 2 4 33
13 68 28 111 5 219 -67 310 -47 59 -55 47 -10 -14z"/>
<path d="M3758 6193 c7 -3 16 -2 19 1 4 3 -2 6 -13 5 -11 0 -14 -3 -6 -6z"/>
<path d="M3851 6196 c2 -2 45 -5 94 -8 50 -3 77 -2 60 2 -30 8 -162 13 -154 6z"/>
<path d="M4123 6150 c206 -69 354 -182 621 -475 83 -91 191 -227 210 -265 8
-15 -46 39 -99 100 -17 19 -40 42 -50 50 -19 14 -19 14 -5 -5 9 -11 47 -56 86
-100 140 -160 243 -293 341 -440 50 -74 155 -267 149 -273 -9 -8 -68 65 -115
143 -111 185 -248 380 -374 531 -69 83 -83 82 -17 -1 124 -156 251 -332 280
-388 l32 -62 -41 45 c-22 25 -41 48 -41 51 0 9 -90 124 -90 116 0 -20 171
-245 274 -362 218 -246 385 -395 543 -484 81 -46 200 -95 253 -105 19 -4 2 7
-40 23 -280 108 -566 337 -664 531 -66 130 -128 230 -224 363 -48 67 -100 142
-116 167 -16 25 -37 57 -47 72 -11 15 -19 30 -19 33 0 10 -133 184 -187 245
-88 100 -277 280 -358 340 -96 72 -206 131 -299 159 -102 31 -104 24 -3 -9z"/>
<path d="M3393 5708 c-67 -105 -119 -221 -160 -356 -36 -116 -36 -118 -36
-307 -1 -175 1 -198 26 -288 31 -117 80 -219 143 -305 26 -34 49 -61 51 -59 1
2 -22 41 -52 87 -61 93 -104 195 -131 315 -23 98 -26 356 -5 450 39 178 100
339 179 468 54 90 44 86 -15 -5z"/>
<path d="M2800 5686 c0 -8 5 -18 10 -21 6 -3 10 1 10 9 0 8 -4 18 -10 21 -5 3
-10 -1 -10 -9z"/>
<path d="M2735 5630 c-3 -5 -1 -10 4 -10 6 0 11 5 11 10 0 6 -2 10 -4 10 -3 0
-8 -4 -11 -10z"/>
<path d="M2318 5534 c-38 -20 -36 -28 2 -9 17 9 30 18 30 20 0 7 -1 6 -32 -11z"/>
<path d="M2195 5475 c-131 -65 -455 -523 -574 -811 -16 -40 -46 -98 -67 -130
-22 -32 -47 -71 -58 -88 -45 -75 -119 -155 -159 -175 -73 -35 -193 -61 -281
-60 -68 0 -77 2 -56 12 14 6 44 19 67 30 24 10 62 36 85 57 l43 38 -135 0
c-161 -1 -243 17 -390 87 -72 34 -88 39 -66 21 40 -33 160 -83 249 -102 116
-26 111 -21 77 -79 -17 -27 -34 -57 -39 -65 -15 -24 -83 -191 -98 -239 -23
-79 -12 -287 19 -345 17 -32 28 4 17 55 -16 70 5 204 55 342 13 37 22 67 19
67 -9 0 -44 -92 -63 -166 -26 -107 -44 -121 -37 -29 6 73 27 143 73 245 23 53
30 60 55 60 l28 0 -26 -46 c-14 -25 -23 -47 -21 -50 3 -2 15 16 28 41 13 26
27 48 32 51 5 3 33 2 64 -2 54 -6 55 -7 49 -33 -3 -14 -37 -91 -74 -171 -71
-150 -161 -368 -161 -389 0 -7 -4 -9 -10 -6 -5 3 -7 0 -4 -8 3 -8 -4 -46 -15
-86 -15 -54 -32 -87 -70 -135 -60 -75 -160 -170 -203 -192 -55 -28 -21 -26 43
4 35 16 91 51 124 79 l60 50 -2 -166 c0 -91 -2 -220 -3 -286 -1 -119 10 -194
37 -247 21 -44 22 -33 1 40 -22 79 -33 228 -21 292 l8 44 29 -57 c30 -62 67
-102 132 -144 l42 -27 7 -80 c5 -45 9 -104 10 -132 1 -27 4 -54 7 -60 4 -5 9
-27 13 -49 12 -71 45 -161 80 -220 34 -56 35 -57 16 -81 -55 -70 -54 -229 2
-396 l36 -106 -19 -39 c-22 -45 -36 -113 -23 -113 4 0 17 29 27 65 10 36 22
65 26 65 5 0 22 -25 39 -56 21 -39 28 -64 25 -83 -7 -33 3 -42 80 -73 33 -13
61 -29 63 -35 2 -6 -14 -19 -36 -29 -22 -10 -54 -35 -71 -56 -32 -40 -50 -48
-50 -23 0 13 -5 12 -36 -2 -32 -16 -35 -20 -29 -49 3 -21 -2 -50 -15 -83 -21
-55 -23 -118 -3 -138 6 -7 13 -18 16 -25 2 -7 7 -10 11 -7 4 4 0 29 -9 57 -16
48 -16 52 4 97 38 86 248 276 331 300 l25 7 -28 -25 c-40 -36 -107 -172 -106
-216 0 -29 2 -32 8 -16 5 11 41 40 81 65 39 25 85 57 101 72 16 15 64 51 107
79 42 29 79 55 82 59 3 4 20 15 37 24 29 14 47 15 143 6 231 -22 487 -138 609
-277 39 -44 41 -49 35 -92 -3 -25 -15 -72 -25 -103 -23 -68 -23 -68 -6 -68 9
0 20 -29 31 -81 10 -45 20 -87 23 -95 3 -8 -22 -42 -60 -81 -61 -64 -114 -155
-139 -238 -5 -16 -13 -90 -18 -163 -6 -82 -18 -155 -30 -192 -11 -33 -20 -62
-20 -65 0 -3 428 -5 951 -5 l951 0 30 25 c37 32 56 32 64 0 5 -19 13 -25 34
-25 l29 0 -24 43 -24 43 56 49 c31 28 59 49 62 48 7 -3 8 -10 10 -63 1 -33 5
-41 25 -46 21 -5 24 -10 19 -40 -9 -55 12 -39 24 18 48 224 56 253 71 265 9 7
77 43 150 80 73 37 128 69 123 71 -12 4 -280 -133 -297 -151 -6 -7 -17 -41
-23 -77 -7 -36 -19 -87 -28 -114 -14 -45 -17 -48 -29 -32 -12 18 -16 65 -18
258 -1 66 2 79 19 93 26 20 320 165 335 165 6 0 20 9 31 19 l20 19 -20 41
c-12 23 -38 86 -57 142 -48 135 -73 170 -147 210 -57 30 -69 32 -181 37 -67 2
-129 8 -138 13 -20 11 -35 57 -22 69 5 4 68 15 141 24 l132 17 86 -36 c122
-50 158 -76 206 -147 37 -54 125 -172 151 -203 5 -5 8 -2 8 7 0 9 -20 43 -45
76 -25 33 -45 64 -45 69 0 5 18 36 41 68 26 37 37 61 31 67 -9 9 -53 -40 -82
-92 -5 -8 -12 -12 -16 -8 -4 4 12 32 36 63 42 54 42 56 25 75 -10 11 -16 22
-13 25 3 3 30 6 60 7 60 2 54 -4 120 116 16 28 33 52 38 52 4 0 32 -37 61 -83
28 -45 54 -76 56 -70 5 14 -47 109 -83 152 l-24 29 22 48 c25 56 29 143 9 211
-6 24 -36 79 -65 123 -88 131 -100 183 -58 248 14 21 13 31 -8 105 -13 45 -26
86 -30 90 -12 14 -35 -24 -45 -77 -8 -37 -14 -50 -25 -47 -8 2 -26 5 -40 6
-18 1 -26 8 -28 26 -6 50 -9 51 -55 24 -74 -43 -80 -34 -47 65 l20 60 -35 31
c-51 45 -46 59 21 59 53 0 58 2 95 43 44 49 45 53 19 87 -26 33 -25 49 4 60
15 5 33 27 45 52 l19 43 1 -40 c0 -22 -6 -58 -14 -80 -17 -46 -19 -67 -5 -45
8 12 10 10 10 -9 0 -55 13 -5 24 91 l11 103 37 17 c29 14 40 27 49 58 11 35
29 55 29 32 0 -53 -44 -314 -56 -334 -3 -5 -17 -13 -30 -18 -29 -11 -32 -30
-4 -30 22 0 25 -16 10 -54 -5 -14 -6 -26 -1 -26 5 0 14 20 20 43 9 38 16 46
53 63 23 10 71 45 105 78 l63 58 -4 -98 c-3 -77 -2 -86 4 -44 4 30 8 81 9 113
1 37 8 72 22 98 25 51 59 182 58 223 l-2 31 -4 -30 c-18 -128 -81 -271 -150
-341 -26 -26 -75 -60 -108 -76 -68 -32 -112 -39 -48 -7 49 24 128 105 166 169
39 66 77 175 93 260 18 100 17 321 -1 445 -16 110 -77 383 -82 368 -2 -5 6
-49 17 -97 57 -244 79 -482 61 -651 -14 -128 -26 -161 -35 -95 -17 128 -37
405 -35 473 l3 78 -32 21 c-31 20 -32 22 -26 70 7 49 7 50 -46 103 l-52 52 16
79 c8 44 21 119 27 168 l11 90 -32 26 c-23 19 -29 29 -21 34 7 5 22 0 34 -11
15 -13 18 -13 9 -2 -7 9 -10 24 -6 33 4 11 -10 7 -53 -15 -66 -36 -78 -45 -45
-34 24 7 24 7 21 -77 -2 -45 3 -157 10 -248 15 -188 9 -321 -20 -455 -19 -89
-79 -231 -120 -283 -40 -53 -113 -124 -117 -114 -2 6 21 59 51 119 64 127 100
234 91 270 -5 18 -3 24 4 19 8 -5 10 -1 6 9 -4 8 -2 21 4 28 9 11 33 138 31
169 -1 19 -48 -123 -49 -147 0 -11 -18 -76 -40 -145 -33 -107 -39 -119 -40
-85 -2 33 -4 26 -16 -36 -15 -86 -63 -224 -100 -286 -27 -47 -97 -111 -130
-119 -17 -4 -30 -26 -54 -87 -63 -160 -127 -247 -218 -295 -83 -44 -93 -40
-33 14 45 41 92 104 76 104 -3 0 -22 -18 -42 -41 -73 -81 -162 -118 -313 -130
-58 -4 -116 -10 -130 -14 -27 -6 -12 1 128 66 99 46 156 84 220 148 46 46 132
175 132 199 0 6 9 26 20 45 20 34 72 179 66 185 -2 1 -13 -21 -25 -50 -12 -29
-28 -66 -36 -83 -13 -29 -14 -29 -14 -5 -1 37 26 158 48 215 11 28 31 79 44
115 14 36 29 79 33 95 14 59 -8 15 -46 -92 -22 -59 -39 -104 -39 -99 -1 5 -18
-17 -39 -50 -97 -149 -245 -250 -398 -271 -30 -4 -41 -9 -32 -14 7 -5 25 -6
41 -3 32 7 35 -6 7 -31 -11 -10 -20 -22 -20 -28 0 -11 -145 -173 -197 -220
-54 -48 -204 -144 -279 -178 -69 -31 -76 -42 -43 -60 12 -6 19 -7 16 -2 -3 5
25 25 61 44 37 20 93 51 125 69 55 30 95 34 82 8 -3 -7 0 -6 6 3 11 15 16 13
46 -19 l33 -35 -22 -16 c-13 -9 -26 -16 -30 -16 -3 0 -10 -3 -14 -8 -4 -4 0
-7 10 -7 13 0 16 -5 11 -22 -10 -35 -27 -68 -36 -68 -5 0 -6 -6 -3 -13 3 -8
-2 -19 -9 -26 -12 -9 -17 -6 -25 19 -12 33 -32 41 -32 13 0 -10 4 -34 9 -53 5
-19 11 -57 14 -85 5 -41 4 -45 -5 -22 -5 15 -14 27 -19 27 -6 0 -6 -8 1 -19
12 -24 13 -34 1 -26 -5 3 -12 1 -16 -5 -10 -16 5 -50 21 -50 8 0 14 -5 14 -11
0 -5 -4 -7 -10 -4 -5 3 -10 -1 -10 -9 0 -9 5 -16 10 -16 6 0 10 -5 10 -12 0
-6 -8 -3 -20 7 -11 10 -17 22 -14 26 3 5 1 9 -5 9 -6 0 -7 7 -4 17 4 10 2 14
-4 10 -8 -5 -40 38 -136 187 -7 10 -18 24 -24 32 -7 7 -13 16 -13 21 -1 16
-38 53 -54 53 -10 0 14 -44 72 -132 49 -73 112 -173 142 -223 30 -49 69 -105
87 -123 18 -18 35 -42 37 -55 4 -21 71 -300 82 -342 4 -13 -5 -30 -25 -51 -26
-27 -45 -34 -123 -49 -51 -10 -160 -33 -243 -51 -135 -30 -151 -32 -172 -19
-30 20 -54 19 -161 -9 -96 -25 -156 -60 -172 -100 -4 -12 -26 -34 -48 -49 -21
-15 -50 -39 -62 -52 -20 -21 -33 -25 -79 -25 -31 1 -90 9 -131 18 l-75 18 -23
79 c-23 78 -23 83 -8 171 12 72 20 97 39 117 45 44 151 292 244 567 14 41 36
96 49 121 23 42 23 48 10 80 -11 27 -30 43 -97 78 -80 42 -103 63 -241 214
-42 47 -46 49 -143 69 -80 17 -138 22 -285 22 -102 1 -210 -3 -241 -7 l-56 -8
-13 32 c-8 18 -36 55 -63 83 -103 106 -233 319 -221 360 7 25 122 146 177 187
l39 28 40 -30 c52 -37 65 -37 27 0 -16 16 -29 34 -29 39 0 19 39 19 69 1 40
-24 39 -17 -3 32 -41 49 -146 257 -146 291 0 6 8 4 18 -3 16 -13 16 -12 1 6
-9 11 -27 36 -39 55 l-22 35 7 -75 c3 -42 2 -93 -4 -115 -14 -56 -50 -200 -51
-202 0 -1 21 10 46 24 50 28 57 25 71 -26 4 -17 1 -26 -13 -34 -10 -6 -55 -43
-100 -83 l-82 -73 -21 51 c-11 28 -21 56 -21 62 0 6 20 24 45 39 35 22 46 36
51 64 12 65 -4 245 -30 334 -40 141 -50 225 -43 397 4 86 13 197 21 246 9 49
14 91 12 93 -7 8 -99 -292 -131 -432 -45 -194 -63 -347 -48 -417 12 -59 8 -72
-13 -44 -67 92 -82 290 -39 512 45 235 122 441 250 674 50 91 45 90 -32 -6
-85 -107 -190 -185 -294 -219 -65 -22 -98 -16 -47 9 55 27 151 118 218 209 33
45 68 91 78 103 9 11 44 78 77 149 136 293 320 572 495 748 59 59 106 107 106
107 -1 0 -15 -7 -31 -15z m-629 -1163 c-16 -31 -52 -62 -71 -62 -5 1 2 11 16
23 15 12 34 35 44 50 23 36 31 28 11 -11z m-426 20 c0 -23 -114 -92 -128 -77
-10 9 48 74 70 78 40 8 58 7 58 -1z m-127 -44 c-33 -51 -52 -67 -75 -68 -22 0
-22 4 -3 35 8 14 22 36 30 50 11 18 24 25 45 25 l30 0 -27 -42z m296 -54 c-24
-29 -99 -75 -127 -78 -30 -3 -34 -11 -118 -177 -122 -242 -218 -550 -229 -729
l-4 -65 8 55 c12 83 42 180 68 225 20 33 21 36 4 16 -19 -21 -21 -22 -21 -4 0
38 88 275 99 268 5 -2 16 25 24 61 15 60 88 229 129 298 15 26 24 30 68 34
l51 4 -25 -51 c-34 -65 -34 -100 -1 -46 13 22 27 52 30 67 4 18 16 30 37 37
43 15 47 13 20 -8 -12 -11 -18 -21 -13 -23 6 -2 5 -24 -1 -55 -10 -49 -13 -53
-58 -72 -53 -23 -53 -22 -65 -166 -4 -38 -8 -88 -10 -110 -10 -95 -35 -432
-34 -455 l1 -25 7 25 c6 22 8 19 13 -19 5 -32 15 -53 38 -74 18 -17 29 -35 26
-44 -3 -8 -6 -19 -6 -24 0 -5 -4 -9 -10 -9 -5 0 -10 6 -10 14 0 7 -11 30 -25
50 -14 20 -25 46 -25 58 0 13 -5 18 -14 15 -8 -3 -24 5 -37 19 -12 13 -24 22
-26 21 -1 -2 17 -24 40 -50 24 -25 60 -80 80 -121 l37 -74 31 15 c35 17 79 12
151 -19 47 -20 76 -44 66 -53 -3 -3 -21 -6 -41 -7 -22 -1 -34 -5 -30 -11 4 -6
0 -8 -10 -4 -10 4 -17 1 -17 -6 1 -15 72 -61 138 -88 28 -12 53 -28 57 -37 7
-18 -34 -65 -51 -58 -8 3 -2 -22 13 -65 14 -38 23 -72 20 -76 -6 -6 -115 71
-129 91 -4 6 -8 7 -8 2 0 -6 -17 6 -37 25 l-36 34 23 -40 c76 -129 103 -223
98 -344 l-3 -74 -87 117 c-75 100 -91 128 -114 204 l-27 87 -17 -50 c-9 -27
-14 -52 -11 -55 3 -3 17 -30 31 -60 14 -30 42 -75 62 -101 61 -78 60 -85 -26
-162 -41 -37 -79 -67 -84 -67 -5 0 -12 -9 -15 -21 -9 -34 -30 -17 -65 52 -27
54 -79 227 -70 233 69 50 86 48 91 -6 3 -42 4 -41 5 9 2 38 7 55 20 62 9 6 12
11 7 11 -6 0 -15 -4 -20 -9 -6 -5 -34 -19 -64 -31 l-54 -21 7 23 c4 13 12 68
17 123 11 125 30 177 77 213 l35 27 -34 7 c-84 16 -103 24 -134 58 -27 30 -27
47 2 66 14 9 22 11 19 5 -9 -15 -5 -14 33 5 23 12 45 14 79 10 26 -4 42 -3 36
1 -6 4 -14 24 -17 43 l-7 35 25 -40 c14 -22 25 -46 25 -52 0 -7 4 -13 10 -13
6 0 6 9 0 25 -19 50 -41 85 -100 159 -33 42 -57 76 -53 76 5 0 9 21 10 46 1
25 -1 44 -3 41 -10 -10 -33 -146 -35 -207 -1 -36 -6 -76 -11 -90 -21 -64 2
201 26 299 14 57 26 114 26 126 0 12 9 44 21 70 11 25 18 49 15 52 -13 14
-120 -284 -182 -506 -18 -68 -36 -126 -39 -129 -2 -3 -8 6 -13 19 -18 49 -22
53 -16 19 13 -72 67 -153 147 -217 53 -43 39 -42 -28 3 -236 156 -243 467 -24
1008 40 98 175 363 198 388 3 4 24 10 44 13 21 4 57 15 80 25 53 23 63 24 46
4z m-30 -302 c-11 -73 -38 -290 -43 -347 -3 -46 -6 -50 -27 -47 -13 2 -25 5
-26 6 -3 3 36 409 39 411 50 37 66 31 57 -23z m3870 -20 c1 -20 -3 -31 -9 -27
-5 3 -10 27 -9 53 0 35 3 42 9 27 5 -11 9 -35 9 -53z m-4386 -600 c-88 -72
-106 -85 -97 -71 5 9 34 43 64 76 46 50 56 56 58 39 3 -13 -6 -29 -25 -44z
m241 -13 c-8 -41 -17 -119 -20 -174 l-4 -100 -30 -9 c-16 -5 -30 -12 -30 -17
0 -4 18 -25 41 -46 39 -37 40 -41 37 -93 l-3 -55 -39 39 c-38 39 -79 113 -70
128 3 4 18 54 34 111 42 150 91 300 96 294 2 -2 -3 -37 -12 -78z m4278 60 c18
-10 19 -17 13 -67 -6 -53 -39 -213 -51 -256 -4 -12 -9 -15 -16 -8 -7 7 -19 7
-36 1 -13 -5 -26 -8 -28 -7 -1 2 13 64 32 138 61 240 52 217 86 199z m-3496
-165 c21 -38 27 -63 27 -109 0 -33 2 -48 4 -32 5 35 14 34 37 -4 20 -34 14
-47 -24 -51 -23 -3 -27 3 -46 62 -20 61 -42 202 -30 189 3 -3 18 -27 32 -55z
m-692 -7 c20 -25 32 -53 36 -87 l6 -50 -53 0 -53 0 0 38 c0 68 13 143 23 139
6 -2 24 -20 41 -40z m4206 -192 c-7 -49 -20 -126 -30 -170 -21 -88 -68 -225
-79 -225 -15 0 21 236 61 398 41 165 43 170 51 130 5 -25 3 -81 -3 -133z
m-4058 55 l-9 -24 -5 25 c-2 14 0 37 6 50 l10 24 3 -25 c2 -14 0 -37 -5 -50z
m4090 -285 c3 -72 0 -86 -28 -145 -18 -39 -55 -91 -88 -125 l-57 -60 5 50 c4
28 17 64 31 85 30 43 80 187 95 273 21 114 23 117 31 57 4 -30 9 -91 11 -135z
m-4287 17 c-13 -13 -25 17 -24 61 l1 52 14 -55 c7 -30 11 -56 9 -58z m75 89
c-1 -15 -52 -63 -60 -55 -7 8 -14 49 -11 64 1 8 71 -1 71 -9z m3345 -108 c-13
-67 -25 -147 -29 -186 -2 -21 -7 -41 -11 -45 -4 -4 -5 8 -1 27 l6 34 -52 -55
c-59 -60 -112 -89 -206 -113 -75 -19 -103 -14 -49 8 58 25 95 55 123 98 13 21
30 39 38 39 16 0 66 39 51 40 -6 0 -15 -4 -20 -9 -14 -12 -176 -54 -183 -47
-3 3 2 6 10 6 9 0 52 18 95 40 64 32 95 56 154 119 41 44 76 80 78 80 2 1 0
-16 -4 -36z m-3425 -92 c0 -39 -4 -73 -10 -76 -6 -4 -10 22 -10 69 0 44 4 76
10 76 6 0 10 -30 10 -69z m418 -18 c2 -1 -1 -9 -6 -19 -9 -15 -12 -14 -26 14
-22 42 -20 49 7 26 12 -10 24 -20 25 -21z m-203 -33 c9 -44 27 -80 76 -152 22
-32 39 -60 39 -63 0 -16 -20 1 -59 50 -51 67 -93 167 -84 203 7 29 17 16 28
-38z m3617 -44 c9 -17 6 -17 -28 4 -22 13 -46 28 -55 34 -14 7 -15 13 -6 28
11 16 14 15 45 -15 19 -17 38 -41 44 -51z m-661 -44 c-12 -22 -72 -82 -82 -82
-5 0 2 18 13 40 18 32 39 49 76 59 1 1 -2 -7 -7 -17z m189 -16 c0 -2 -13 -20
-30 -41 -33 -41 -40 -66 -13 -44 40 34 -9 -29 -65 -82 -62 -59 -118 -93 -135
-82 -5 3 -7 1 -4 -4 8 -12 -8 -27 -38 -36 -20 -7 -20 -7 -1 8 11 8 16 15 12
15 -5 0 -2 8 5 18 13 15 12 16 -3 3 -10 -7 -25 -11 -33 -7 -8 3 -15 0 -15 -7
-1 -7 -9 13 -20 43 -17 50 -17 57 -3 72 8 9 36 20 62 23 110 15 182 44 246 99
30 26 35 29 35 22z m-371 -224 c0 -9 3 -32 7 -49 5 -26 3 -33 -10 -33 -19 0
-21 11 -3 29 10 11 8 11 -10 0 -26 -16 -14 -39 21 -40 20 0 21 -1 1 -9 -27
-11 -37 -12 -31 -1 8 13 -21 34 -35 26 -8 -6 -7 -10 2 -16 10 -6 3 -9 -21 -9
-31 -1 -32 -2 -12 -10 27 -12 29 -24 2 -17 -11 3 -18 1 -14 -4 6 -11 2 -11
-21 -3 -13 5 -14 9 -4 15 8 4 10 11 6 16 -12 11 -25 -16 -19 -41 l5 -21 -24
21 c-13 12 -30 19 -36 17 -7 -3 -13 0 -13 6 0 10 5 12 25 11 3 0 18 11 33 25
15 14 32 25 38 25 7 0 32 19 56 43 44 45 56 49 57 19z m549 -14 c7 -18 15 -69
19 -113 3 -47 14 -95 25 -117 l18 -38 -25 -50 c-14 -27 -25 -57 -25 -67 0 -13
-3 -14 -12 -5 -9 9 -9 17 1 35 7 14 11 33 8 43 -4 16 -5 15 -6 -3 0 -13 -6
-23 -12 -23 -6 0 -8 7 -5 16 4 10 2 13 -6 8 -8 -5 -9 0 -5 15 3 15 0 24 -9 28
-8 3 -13 12 -10 19 3 7 0 16 -6 20 -6 4 -8 3 -4 -4 3 -6 2 -13 -4 -17 -5 -3
-10 0 -10 7 0 7 -9 19 -21 26 -17 11 -19 16 -7 29 7 10 8 14 1 10 -6 -4 -27 9
-48 29 -27 26 -40 33 -48 25 -6 -6 -25 -11 -41 -10 l-31 1 30 8 c81 21 162 78
194 138 16 30 24 28 39 -10z m-485 -48 c-3 -12 -8 -19 -11 -16 -5 6 5 36 12
36 2 0 2 -9 -1 -20z m-2843 -34 c-37 -86 -79 -222 -89 -286 -8 -50 -7 -81 4
-134 8 -38 13 -71 11 -73 -2 -3 -13 26 -25 64 -64 208 -50 315 57 426 26 26
50 47 54 47 4 0 -1 -20 -12 -44z m588 -11 c-6 -14 -15 -25 -20 -25 -5 0 -6 -4
-3 -10 3 -5 1 -10 -5 -10 -6 0 -15 -11 -20 -25 -5 -14 -14 -25 -19 -25 -11 0
24 77 47 103 22 25 33 21 20 -8z m2347 -52 c-11 -3 -24 -10 -30 -15 -7 -8 -6
-9 3 -4 6 4 12 3 12 -2 0 -6 13 -15 28 -20 44 -15 95 -65 122 -119 31 -60 42
-210 17 -224 -9 -5 -13 -19 -11 -36 4 -23 3 -24 -4 -8 -8 17 -9 16 -16 -10 -4
-16 -16 -49 -27 -72 -10 -24 -28 -62 -38 -86 -11 -23 -23 -56 -27 -72 -4 -16
-13 -40 -20 -54 -8 -14 -14 -33 -15 -41 -3 -34 -19 84 -28 211 -6 74 -17 154
-26 178 -13 38 -35 248 -35 338 0 29 3 32 38 36 20 2 46 4 57 4 l20 1 -20 -5z
m-190 -23 c7 -12 -2 -12 -30 0 -19 8 -19 9 2 9 12 1 25 -3 28 -9z m62 -62 c-2
-13 -4 -5 -4 17 -1 22 1 32 4 23 2 -10 2 -28 0 -40z m-1772 -63 c130 -27 306
-85 400 -130 86 -43 175 -112 175 -138 0 -7 -14 -50 -31 -97 -17 -47 -33 -93
-36 -102 -3 -10 -7 -18 -9 -18 -3 0 -37 26 -77 59 -132 107 -276 178 -451 222
-170 43 -476 30 -532 -23 -19 -17 -25 -18 -42 -7 -22 14 -22 16 0 132 12 65
14 66 119 93 138 36 336 39 484 9z m1537 -130 c3 -14 1 -28 -3 -31 -5 -3 -9 1
-9 8 0 7 -3 24 -7 37 -4 16 -2 22 4 18 6 -4 13 -18 15 -32z m15 3 c-3 -7 -5
-2 -5 12 0 14 2 19 5 13 2 -7 2 -19 0 -25z m740 -10 c-3 -8 -6 -5 -6 6 -1 11
2 17 5 13 3 -3 4 -12 1 -19z m-10 -40 c-3 -8 -6 -5 -6 6 -1 11 2 17 5 13 3 -3
4 -12 1 -19z m-740 -40 c-3 -7 -5 -2 -5 12 0 14 2 19 5 13 2 -7 2 -19 0 -25z
m-23 -68 c4 -25 3 -31 -4 -20 -5 8 -10 26 -10 39 0 32 6 24 14 -19z m165 -126
c12 -76 30 -371 27 -443 0 -25 -6 -46 -13 -48 -12 -4 -19 23 -14 51 1 4 -3 14
-9 21 -13 15 -35 90 -49 165 -6 30 -20 99 -31 153 -21 105 -26 162 -11 139 7
-11 9 -10 15 3 3 9 10 14 15 11 5 -3 17 6 26 21 22 33 29 22 44 -73z m1276
-39 c0 -57 -5 -81 -29 -130 -29 -60 -115 -205 -122 -205 -1 0 19 42 45 94 54
106 71 174 71 290 l1 81 17 -30 c11 -20 16 -54 17 -100z m-3600 -55 c-3 -5
-11 -10 -16 -10 -6 0 -7 5 -4 10 3 6 11 10 16 10 6 0 7 -4 4 -10z m1403 -757
c-26 -60 -32 -66 -23 -28 8 38 26 75 36 75 4 0 -1 -21 -13 -47z m-205 -17 c17
0 27 -6 27 -15 0 -20 -134 -9 -157 14 -15 16 -12 16 43 9 32 -4 71 -8 87 -8z
m61 -25 c-14 -42 -29 -177 -44 -391 -8 -123 -8 -118 -3 65 5 208 12 269 37
329 20 48 27 46 10 -3z m786 -77 c0 -7 -58 25 -65 36 -3 5 10 1 29 -11 20 -12
36 -23 36 -25z m-521 -24 c-9 -5 -43 -12 -75 -15 l-59 -4 60 13 c77 17 96 19
74 6z m-329 -30 c0 -14 -3 -56 -7 -94 l-6 -69 -14 54 c-8 30 -22 70 -33 91
-22 42 -18 49 27 45 28 -2 33 -6 33 -27z m1605 -340 c0 -14 -179 -171 -220
-193 -11 -5 27 40 84 102 98 105 136 131 136 91z m-420 -6 c-26 -10 -339 -55
-410 -59 -113 -6 -41 8 185 36 96 11 177 23 179 25 2 2 16 4 30 3 14 0 22 -2
16 -5z"/>
<path d="M1116 4015 c-9 -26 -7 -32 5 -12 6 10 9 21 6 23 -2 3 -7 -2 -11 -11z"/>
<path d="M833 3085 c0 -22 2 -30 4 -17 2 12 2 30 0 40 -3 9 -5 -1 -4 -23z"/>
<path d="M1342 2921 c-10 -6 -8 -10 9 -14 26 -7 34 -3 24 12 -7 13 -15 14 -33
2z"/>
<path d="M1411 2882 c37 -24 54 -43 73 -81 10 -18 20 -31 22 -28 17 16 -80
127 -111 127 -5 0 2 -8 16 -18z"/>
<path d="M1185 2520 c10 -11 20 -20 23 -20 3 0 -3 9 -13 20 -10 11 -20 20 -23
20 -3 0 3 -9 13 -20z"/>
<path d="M4100 2290 c-8 -5 -11 -12 -8 -16 4 -3 14 1 23 10 18 17 9 21 -15 6z"/>
<path d="M4150 2296 c0 -2 8 -10 18 -17 15 -13 16 -12 3 4 -13 16 -21 21 -21
13z"/>
<path d="M4000 2262 c0 -7 -5 -12 -11 -12 -5 0 -27 -11 -47 -25 -23 -16 -30
-25 -19 -25 9 0 25 7 34 15 10 8 27 21 38 29 11 8 17 18 12 22 -4 4 -7 2 -7
-4z"/>
<path d="M4420 2160 c0 -14 15 -19 29 -11 9 6 7 10 -8 14 -12 3 -21 1 -21 -3z"/>
<path d="M4470 2133 c0 -22 2 -25 10 -13 13 20 13 40 0 40 -5 0 -10 -12 -10
-27z"/>
<path d="M1960 5350 c-8 -5 -10 -10 -5 -10 6 0 17 5 25 10 8 5 11 10 5 10 -5
0 -17 -5 -25 -10z"/>
<path d="M1570 5143 c0 -13 -176 -154 -238 -191 -141 -85 -289 -146 -471 -193
-64 -16 -103 -20 -159 -17 -40 3 -69 2 -65 -2 13 -12 127 -29 138 -20 6 4 30
11 55 15 120 20 386 129 512 210 64 42 248 191 248 201 0 2 -4 4 -10 4 -5 0
-10 -3 -10 -7z"/>
<path d="M3610 5121 c0 -5 5 -13 10 -16 6 -3 10 -2 10 4 0 5 -4 13 -10 16 -5
3 -10 2 -10 -4z"/>
<path d="M3671 4983 c42 -128 128 -296 201 -392 34 -46 69 -94 77 -106 8 -12
24 -28 37 -36 12 -8 53 -40 90 -72 61 -52 200 -134 210 -125 2 2 -25 20 -59
40 -128 74 -294 223 -354 318 -90 145 -174 314 -177 355 0 13 -5 21 -9 18 -5
-3 -7 1 -6 8 3 13 -27 79 -35 79 -2 0 10 -39 25 -87z"/>
<path d="M3800 5013 c0 -6 8 -17 18 -24 16 -13 16 -13 2 6 -8 11 -16 22 -17
24 -2 2 -3 0 -3 -6z"/>
<path d="M3740 4926 c0 -2 8 -10 18 -17 15 -13 16 -12 3 4 -13 16 -21 21 -21
13z"/>
<path d="M3922 4895 c15 -16 29 -27 31 -24 3 2 -10 15 -27 28 l-31 24 27 -28z"/>
<path d="M3820 4845 c13 -14 26 -25 28 -25 3 0 -5 11 -18 25 -13 14 -26 25
-28 25 -3 0 5 -11 18 -25z"/>
<path d="M789 4702 c29 -10 -52 -31 -179 -47 -126 -16 -197 -14 -252 10 -10 4
-18 3 -18 -2 0 -15 81 -70 151 -103 34 -16 65 -33 68 -37 3 -5 20 -6 36 -3 29
6 28 7 -22 22 -41 12 -183 83 -183 91 0 1 26 1 58 -1 65 -4 258 20 346 43 31
8 83 16 114 16 118 3 112 15 -8 15 -69 1 -119 -1 -111 -4z"/>
<path d="M4057 4689 c7 -7 15 -10 18 -7 3 3 -2 9 -12 12 -14 6 -15 5 -6 -5z"/>
<path d="M1880 4593 c-24 -32 -55 -71 -69 -88 l-26 -30 34 30 c30 27 118 145
108 145 -3 0 -24 -26 -47 -57z"/>
<path d="M4248 4643 c7 -3 16 -2 19 1 4 3 -2 6 -13 5 -11 0 -14 -3 -6 -6z"/>
<path d="M4418 4643 c7 -3 16 -2 19 1 4 3 -2 6 -13 5 -11 0 -14 -3 -6 -6z"/>
<path d="M5030 4573 c26 -84 56 -157 103 -248 48 -92 183 -238 255 -274 56
-29 53 -20 -7 19 -66 42 -180 163 -224 238 -36 61 -95 202 -118 280 -7 23 -16
42 -20 42 -4 0 1 -26 11 -57z"/>
<path d="M1890 4543 c-41 -42 -85 -80 -97 -86 -13 -6 -23 -14 -23 -19 0 -20
171 127 191 163 14 26 13 26 -71 -58z"/>
<path d="M4126 4607 c3 -10 9 -15 12 -12 3 3 0 11 -7 18 -10 9 -11 8 -5 -6z"/>
<path d="M503 4513 c9 -2 25 -2 35 0 9 3 1 5 -18 5 -19 0 -27 -2 -17 -5z"/>
<path d="M4235 4480 c10 -11 20 -20 23 -20 3 0 -3 9 -13 20 -10 11 -20 20 -23
20 -3 0 3 -9 13 -20z"/>
<path d="M2102 4470 c0 -14 2 -19 5 -12 2 6 2 18 0 25 -3 6 -5 1 -5 -13z"/>
<path d="M1470 4450 c-9 -6 -10 -10 -3 -10 6 0 15 5 18 10 8 12 4 12 -15 0z"/>
<path d="M2505 4383 c-9 -43 -39 -168 -66 -278 -59 -242 -80 -367 -88 -545
l-6 -135 -27 50 -27 50 0 -40 c0 -22 6 -57 13 -77 13 -36 13 -37 -6 -27 -11 6
-40 32 -64 57 -30 31 -55 47 -75 50 -28 3 -29 1 -20 -17 6 -11 15 -22 20 -26
6 -3 6 -17 -1 -36 -10 -31 -6 -144 7 -184 7 -20 7 -20 -9 0 -41 50 -96 293
-96 422 0 43 -5 75 -11 79 -29 18 19 -327 61 -439 25 -66 77 -157 90 -157 5 0
1 15 -9 33 -17 31 -17 38 -4 98 29 130 47 148 111 109 39 -24 43 -25 36 -5 -4
8 -1 15 4 15 15 0 24 -17 13 -25 -5 -3 -10 -13 -9 -23 0 -9 -4 -54 -8 -99 -5
-62 -4 -83 5 -83 7 0 9 5 6 10 -3 6 -2 10 4 10 6 0 15 19 21 43 22 85 43 147
50 147 4 0 5 -11 2 -25 -3 -20 -1 -24 11 -19 13 5 15 -8 15 -94 -1 -112 13
-155 51 -160 19 -3 21 -6 10 -13 -10 -6 -5 -8 16 -7 17 1 42 10 57 20 27 19
88 131 88 162 0 9 7 16 15 16 17 0 18 -20 6 -95 -5 -27 -5 -58 -2 -68 6 -16
10 -12 24 20 10 21 19 50 21 66 1 15 6 30 9 34 4 3 7 26 7 50 l0 44 45 -7 45
-6 -3 41 c-2 48 -22 61 -124 82 l-63 13 0 66 c0 55 27 262 57 430 l7 45 7 -35
c5 -28 7 -23 8 28 0 35 6 95 12 133 6 39 9 72 7 74 -9 9 -101 -520 -107 -617
-4 -59 -10 -110 -14 -114 -3 -3 -52 1 -109 11 -175 28 -158 19 -158 79 0 118
43 400 77 501 l17 50 12 -106 c12 -104 34 -222 41 -216 1 2 -4 51 -13 108 -21
142 -15 358 15 497 13 57 20 106 18 109 -3 2 -13 -31 -22 -74z m40 -1053 c3
-5 -1 -10 -9 -10 -9 0 -16 5 -16 10 0 6 4 10 9 10 6 0 13 -4 16 -10z m48 -7
c-7 -2 -19 -2 -25 0 -7 3 -2 5 12 5 14 0 19 -2 13 -5z m-33 -23 c0 -5 -8 -10
-17 -10 -15 0 -16 2 -3 10 19 12 20 12 20 0z m47 -16 c-3 -3 -12 -4 -19 -1 -8
3 -5 6 6 6 11 1 17 -2 13 -5z"/>
<path d="M1410 4425 c-14 -8 -20 -14 -14 -15 5 0 19 7 30 15 24 18 16 19 -16
0z"/>
<path d="M1350 4400 c-13 -8 -13 -10 2 -10 9 0 20 5 23 10 8 13 -5 13 -25 0z"/>
<path d="M1305 4380 c-3 -6 1 -7 9 -4 18 7 21 14 7 14 -6 0 -13 -4 -16 -10z"/>
<path d="M4355 4370 c10 -11 20 -20 23 -20 3 0 -3 9 -13 20 -10 11 -20 20 -23
20 -3 0 3 -9 13 -20z"/>
<path d="M4390 4336 c0 -2 7 -7 16 -10 8 -3 12 -2 9 4 -6 10 -25 14 -25 6z"/>
<path d="M5020 4335 c0 -10 68 -113 79 -119 6 -4 11 -17 11 -28 0 -12 3 -18 6
-15 4 3 31 -16 62 -43 53 -47 123 -87 206 -116 38 -14 135 -20 123 -8 -3 4
-25 6 -48 6 -50 -1 -140 38 -228 97 -60 41 -136 122 -180 194 -21 35 -31 45
-31 32z"/>
<path d="M4562 4280 c0 -14 2 -19 5 -12 2 6 2 18 0 25 -3 6 -5 1 -5 -13z"/>
<path d="M1652 4215 c0 -16 2 -22 5 -12 2 9 2 23 0 30 -3 6 -5 -1 -5 -18z"/>
<path d="M2751 4184 c0 -11 3 -14 6 -6 3 7 2 16 -1 19 -3 4 -6 -2 -5 -13z"/>
<path d="M6320 4134 c-66 -54 -198 -136 -258 -159 -35 -15 -65 -17 -160 -13
-68 3 -102 1 -82 -3 19 -4 80 -9 135 -10 l100 -2 -60 -28 c-33 -15 -66 -28
-72 -29 -25 0 -12 -26 22 -44 19 -11 35 -24 35 -29 0 -9 -259 -4 -340 7 -19 3
-10 -1 20 -9 39 -11 100 -14 214 -12 l159 2 -46 29 c-26 17 -47 33 -47 37 0 3
19 14 43 23 23 9 69 36 102 61 33 25 88 62 123 82 53 31 188 143 172 142 -3 0
-30 -21 -60 -45z"/>
<path d="M5106 4145 c4 -8 8 -15 10 -15 2 0 4 7 4 15 0 8 -4 15 -10 15 -5 0
-7 -7 -4 -15z"/>
<path d="M1611 4124 c0 -11 3 -14 6 -6 3 7 2 16 -1 19 -3 4 -6 -2 -5 -13z"/>
<path d="M1642 4110 c0 -14 2 -19 5 -12 2 6 2 18 0 25 -3 6 -5 1 -5 -13z"/>
<path d="M1952 4040 c0 -14 2 -19 5 -12 2 6 2 18 0 25 -3 6 -5 1 -5 -13z"/>
<path d="M1722 4020 c0 -14 2 -19 5 -12 2 6 2 18 0 25 -3 6 -5 1 -5 -13z"/>
<path d="M5270 4008 c14 -13 50 -43 80 -67 30 -24 67 -62 81 -85 32 -49 106
-122 115 -113 4 4 2 12 -3 19 -17 20 -25 75 -14 83 18 11 12 25 -11 25 -28 0
-141 62 -198 109 -55 45 -84 63 -50 29z m195 -137 c3 -5 1 -12 -5 -16 -5 -3
-10 1 -10 9 0 18 6 21 15 7z m35 -23 c0 -7 3 -24 6 -38 l7 -25 -23 22 c-14 13
-20 28 -17 37 8 19 27 21 27 4z"/>
<path d="M1962 3970 c0 -14 2 -19 5 -12 2 6 2 18 0 25 -3 6 -5 1 -5 -13z"/>
<path d="M5043 3948 c-13 -6 -23 -15 -23 -20 0 -5 11 -1 25 8 37 24 35 30 -2
12z"/>
<path d="M5248 3923 c13 -24 62 -68 115 -103 35 -23 37 -28 32 -59 -6 -31 -5
-33 9 -22 9 7 13 17 11 22 -14 21 83 -25 112 -55 1 -1 14 -54 27 -117 14 -63
35 -145 46 -184 91 -302 131 -411 186 -505 37 -63 39 -70 25 -70 -17 0 -96
113 -136 192 -43 88 -61 100 -20 15 32 -68 36 -105 24 -243 -12 -158 -68 -354
-100 -354 -6 0 -6 7 0 18 20 38 33 188 26 317 -10 203 -35 339 -71 381 -31 35
-30 23 1 -31 57 -97 74 -542 26 -667 -27 -70 -55 -106 -95 -124 -31 -13 -31
-13 -5 -14 34 0 108 65 143 125 50 85 80 210 94 395 l7 95 39 -53 c42 -58 128
-133 188 -163 43 -22 135 -38 125 -22 -4 6 -18 11 -31 11 -106 0 -237 163
-320 397 -42 121 -95 313 -110 400 -4 22 -13 60 -21 85 -7 25 -17 60 -20 79
-7 32 -6 33 18 27 14 -3 28 -2 31 3 9 13 -39 41 -61 35 -23 -6 -139 68 -237
151 -38 32 -64 49 -58 38z"/>
<path d="M1971 3914 c0 -11 3 -14 6 -6 3 7 2 16 -1 19 -3 4 -6 -2 -5 -13z"/>
<path d="M4990 3920 c-9 -6 -10 -10 -3 -10 6 0 15 5 18 10 8 12 4 12 -15 0z"/>
<path d="M4920 3895 c-18 -10 -20 -14 -8 -15 14 0 18 -12 21 -57 l3 -58 2 62
c2 47 6 64 20 72 13 8 14 10 2 10 -8 0 -26 -6 -40 -14z"/>
<path d="M2723 3840 c0 -25 2 -35 4 -22 2 12 2 32 0 45 -2 12 -4 2 -4 -23z"/>
<path d="M4664 3872 c-6 -4 -14 -56 -17 -120 -5 -83 -17 -156 -47 -275 -56
-219 -65 -228 -30 -26 11 63 19 123 19 134 -1 36 -36 -131 -48 -232 -19 -156
-27 -193 -66 -286 -25 -58 -42 -86 -50 -83 -8 3 -12 -2 -11 -11 3 -20 -22 -73
-34 -73 -18 0 -25 80 -24 275 1 200 4 227 43 339 12 33 21 69 21 80 -1 12 -16
-21 -35 -72 -18 -51 -47 -121 -63 -155 -32 -69 -117 -198 -139 -210 -7 -4 -25
-31 -39 -60 -15 -29 -31 -55 -35 -58 -5 -3 12 -5 38 -5 l48 1 3 -54 c2 -29 -1
-73 -6 -97 -6 -28 -6 -44 0 -44 15 0 78 145 78 180 0 21 9 39 28 55 l27 24
-46 1 c-30 0 -55 7 -70 19 l-23 18 46 62 c26 33 61 86 78 116 17 30 32 55 34
55 1 0 -2 -33 -6 -72 -4 -40 -7 -124 -6 -186 0 -112 -1 -115 -38 -190 -42 -86
-162 -220 -185 -207 -7 5 -10 4 -6 -3 6 -9 -54 -51 -103 -74 -8 -4 -10 -7 -4
-7 25 -2 130 61 184 111 42 38 98 112 130 169 18 33 31 48 34 39 2 -8 9 -31
15 -50 11 -33 9 -38 -36 -105 -59 -86 -157 -164 -204 -163 -18 1 -37 -6 -43
-14 -13 -18 -95 -48 -131 -48 -24 0 -24 -1 -7 -18 9 -10 19 -15 22 -11 3 4 25
12 50 19 56 15 154 63 200 98 83 63 156 164 240 332 86 172 183 507 201 695 6
55 14 121 18 148 5 26 8 47 7 47 -1 0 -6 -4 -12 -8z"/>
<path d="M4855 3870 c-19 -8 -19 -9 2 -9 12 -1 25 4 28 9 7 12 -2 12 -30 0z"/>
<path d="M4738 3863 c7 -3 16 -2 19 1 4 3 -2 6 -13 5 -11 0 -14 -3 -6 -6z"/>
<path d="M4790 3860 c0 -5 5 -10 11 -10 5 0 7 5 4 10 -3 6 -8 10 -11 10 -2 0
-4 -4 -4 -10z"/>
<path d="M2535 3752 c3 -72 11 -121 26 -163 12 -33 23 -58 25 -56 2 2 -5 39
-16 83 -11 43 -24 115 -29 159 l-10 80 4 -103z"/>
<path d="M1723 3785 c0 -22 2 -30 4 -17 2 12 2 30 0 40 -3 9 -5 -1 -4 -23z"/>
<path d="M2020 3775 c0 -5 5 -17 10 -25 5 -8 10 -10 10 -5 0 6 -5 17 -10 25
-5 8 -10 11 -10 5z"/>
<path d="M2732 3750 c0 -19 2 -27 5 -17 2 9 2 25 0 35 -3 9 -5 1 -5 -18z"/>
<path d="M2900 3725 c0 -19 4 -35 10 -35 5 0 13 -12 16 -27 13 -57 85 -180
133 -228 27 -28 69 -61 93 -73 27 -15 34 -16 18 -5 -13 10 -54 47 -90 83 -71
71 -131 175 -153 268 -14 60 -27 68 -27 17z"/>
<path d="M5310 3757 c0 -5 22 -95 49 -200 64 -248 81 -359 82 -548 1 -101 4
-144 10 -124 16 60 2 -298 -16 -380 -19 -88 -62 -223 -78 -243 -5 -7 -7 -15
-4 -18 9 -9 51 88 75 171 37 123 45 232 38 475 -3 124 -12 270 -20 325 -7 55
-12 102 -10 103 1 2 10 -9 19 -25 15 -26 15 -26 9 -3 -4 14 -15 42 -26 63 -10
21 -39 115 -64 209 -39 151 -63 221 -64 195z"/>
<path d="M4943 3655 c0 -44 2 -61 4 -37 2 23 2 59 0 80 -2 20 -4 1 -4 -43z"/>
<path d="M2741 3694 c0 -11 3 -14 6 -6 3 7 2 16 -1 19 -3 4 -6 -2 -5 -13z"/>
<path d="M2751 3660 c0 -8 6 -28 14 -45 17 -39 18 -21 0 25 -7 19 -14 28 -14
20z"/>
<path d="M4793 3600 c0 -41 2 -58 4 -37 2 20 2 54 0 75 -2 20 -4 3 -4 -38z"/>
<path d="M4421 3634 c0 -11 3 -14 6 -6 3 7 2 16 -1 19 -3 4 -6 -2 -5 -13z"/>
<path d="M4591 3624 c0 -11 3 -14 6 -6 3 7 2 16 -1 19 -3 4 -6 -2 -5 -13z"/>
<path d="M2104 3597 c16 -39 53 -97 63 -97 6 0 -55 111 -69 125 -5 6 -3 -7 6
-28z"/>
<path d="M4860 3572 c0 -20 -4 -52 -9 -70 -6 -18 -6 -43 -2 -55 7 -18 10 -11
15 33 14 117 14 130 5 130 -5 0 -9 -17 -9 -38z"/>
<path d="M2903 3520 c0 -47 2 -66 4 -42 2 23 2 61 0 85 -2 23 -4 4 -4 -43z"/>
<path d="M2790 3573 c0 -17 38 -102 52 -116 42 -39 46 -35 16 11 -18 29 -41
67 -50 85 -9 17 -17 27 -18 20z"/>
<path d="M4953 3515 c0 -22 2 -30 4 -17 2 12 2 30 0 40 -3 9 -5 -1 -4 -23z"/>
<path d="M3708 3475 c-20 -30 -34 -55 -32 -55 3 0 20 17 39 37 33 37 34 37 39
12 2 -13 12 -64 22 -114 9 -49 24 -105 31 -124 8 -18 13 -35 11 -36 -2 -2 -37
1 -78 6 -94 12 -140 5 -140 -21 0 -10 -4 -22 -10 -25 -24 -15 -8 -33 35 -39
43 -7 44 -8 34 -34 -6 -15 -13 -65 -16 -111 -5 -69 -4 -83 8 -79 8 2 18 22 23
44 13 62 45 142 45 116 1 -12 6 -21 13 -20 8 2 15 -17 19 -52 11 -99 19 -126
44 -150 28 -26 65 -29 98 -7 22 14 37 40 72 120 9 20 20 35 26 32 5 -4 9 -1 9
6 0 9 3 10 11 2 7 -7 7 -29 1 -69 -11 -67 -13 -104 -6 -104 12 0 43 95 55 164
8 49 17 76 26 76 17 0 17 -1 -8 65 -25 67 -43 73 -33 10 3 -25 3 -52 0 -62 -6
-15 -9 -14 -24 8 -101 150 -122 180 -122 172 0 -5 7 -18 15 -29 25 -32 18 -42
-30 -40 -38 1 -46 5 -55 26 -15 38 -60 232 -60 260 0 32 -10 70 -19 70 -4 0
-23 -25 -43 -55z m192 -395 c18 -12 2 -12 -25 0 -13 6 -15 9 -5 9 8 0 22 -4
30 -9z"/>
<path d="M4831 3434 c0 -11 3 -14 6 -6 3 7 2 16 -1 19 -3 4 -6 -2 -5 -13z"/>
<path d="M3180 3433 c0 -12 20 -40 20 -28 0 5 23 -13 51 -40 28 -28 47 -41 41
-30 -17 33 -112 117 -112 98z"/>
<path d="M3290 3435 c0 -5 5 -17 10 -25 5 -8 10 -10 10 -5 0 6 -5 17 -10 25
-5 8 -10 11 -10 5z"/>
<path d="M3853 3315 c1 -91 2 -99 7 -50 4 33 7 54 8 46 1 -8 4 -12 6 -10 2 2
-2 31 -9 64 l-12 60 0 -110z"/>
<path d="M4853 3380 c0 -25 2 -35 4 -22 2 12 2 32 0 45 -2 12 -4 2 -4 -23z"/>
<path d="M4783 3320 c0 -66 1 -75 6 -42 4 23 4 61 0 85 -5 32 -6 23 -6 -43z"/>
<path d="M4946 3354 c-3 -26 -5 -74 -5 -108 2 -48 4 -38 10 44 8 110 6 142 -5
64z"/>
<path d="M3339 3355 c17 -33 31 -51 31 -40 0 6 -10 21 -21 35 -13 17 -17 18
-10 5z"/>
<path d="M3440 3312 c0 -12 5 -22 10 -22 6 0 10 -6 10 -14 0 -7 7 -20 16 -27
13 -10 11 -3 -6 31 -28 56 -30 58 -30 32z"/>
<path d="M1880 3285 c13 -14 26 -25 28 -25 3 0 -5 11 -18 25 -13 14 -26 25
-28 25 -3 0 5 -11 18 -25z"/>
<path d="M4843 3270 c0 -25 2 -35 4 -22 2 12 2 32 0 45 -2 12 -4 2 -4 -23z"/>
<path d="M3886 3277 c3 -10 9 -15 12 -12 3 3 0 11 -7 18 -10 9 -11 8 -5 -6z"/>
<path d="M5470 3255 c0 -13 32 -66 36 -62 6 6 -23 67 -31 67 -3 0 -5 -2 -5 -5z"/>
<path d="M1857 3219 c12 -12 24 -21 27 -18 2 2 -8 13 -22 23 l-27 19 22 -24z"/>
<path d="M1960 3216 c0 -3 9 -10 20 -16 11 -6 20 -8 20 -6 0 3 -9 10 -20 16
-11 6 -20 8 -20 6z"/>
<path d="M4773 3165 c0 -27 2 -38 4 -22 2 15 2 37 0 50 -2 12 -4 0 -4 -28z"/>
<path d="M4827 3178 c-3 -18 -1 -37 4 -42 5 -6 9 7 9 32 0 50 -6 54 -13 10z"/>
<path d="M1917 3179 c7 -7 15 -10 18 -7 3 3 -2 9 -12 12 -14 6 -15 5 -6 -5z"/>
<path d="M4933 3115 c0 -27 2 -38 4 -22 2 15 2 37 0 50 -2 12 -4 0 -4 -28z"/>
<path d="M2225 3100 c10 -11 36 -28 58 -37 l40 -18 -34 -7 c-27 -5 -23 -6 18
-4 51 2 89 16 44 16 -26 0 -92 32 -110 54 -8 9 -18 16 -24 16 -5 0 -2 -9 8
-20z"/>
<path d="M4814 3033 c-10 -77 -17 -100 -44 -140 -29 -44 -31 -45 -26 -18 14
72 27 196 23 212 -3 10 -5 4 -6 -13 -1 -44 -38 -254 -61 -350 -24 -98 -24
-100 -4 -84 23 20 62 90 84 154 21 61 54 272 48 309 -2 12 -9 -20 -14 -70z
m-84 -320 c0 -14 -19 -38 -25 -32 -8 8 5 39 16 39 5 0 9 -3 9 -7z"/>
<path d="M1983 3064 c-3 -9 2 -33 13 -52 27 -52 107 -135 130 -136 11 -1 25
-6 33 -10 9 -6 12 -5 9 4 -2 8 -20 19 -39 25 -19 7 -32 15 -31 20 2 4 -1 11
-7 15 -7 3 -9 14 -5 23 3 9 10 14 15 11 5 -3 6 2 3 10 -5 13 -9 12 -25 -7
l-19 -22 -25 28 c-39 44 -34 59 15 40 67 -27 66 -2 -1 35 -52 29 -60 31 -66
16z m32 -12 c-3 -3 -11 0 -18 7 -9 10 -8 11 6 5 10 -3 15 -9 12 -12z"/>
<path d="M2200 3035 c0 -11 89 -55 111 -54 16 0 9 5 -22 15 -26 7 -52 21 -59
29 -12 14 -30 20 -30 10z"/>
<path d="M1615 2944 c-11 -17 -13 -25 -4 -22 16 5 44 48 31 48 -5 0 -17 -12
-27 -26z"/>
<path d="M2114 2930 c0 -11 6 -22 12 -24 7 -3 10 3 7 15 -7 26 -19 32 -19 9z"/>
<path d="M2468 2933 c6 -2 18 -2 25 0 6 3 1 5 -13 5 -14 0 -19 -2 -12 -5z"/>
<path d="M1885 2843 c4 -20 2 -33 -3 -33 -6 0 -20 -15 -32 -34 -11 -19 -31
-37 -43 -39 -18 -4 -18 -4 5 -6 15 0 49 -14 75 -30 27 -16 82 -39 123 -51 41
-12 86 -28 100 -35 14 -7 37 -15 51 -18 23 -6 20 -1 -22 41 -46 46 -48 50 -48
107 0 40 6 66 16 77 13 14 9 14 -23 -3 -44 -22 -55 -23 -124 -8 -38 8 -54 17
-65 37 l-16 27 6 -32z m45 -43 c0 -6 -7 -24 -15 -40 -15 -29 -15 -30 10 -30
17 0 24 4 19 11 -3 6 -1 21 6 33 9 17 18 21 41 18 16 -2 29 -6 29 -9 0 -15
-25 -45 -43 -53 -20 -8 -19 -9 9 -9 28 -1 85 -44 73 -56 -15 -15 -209 61 -209
81 0 3 10 19 23 34 22 28 57 40 57 20z"/>
<path d="M852 2795 c0 -16 2 -22 5 -12 2 9 2 23 0 30 -3 6 -5 -1 -5 -18z"/>
<path d="M3985 2789 c-4 -6 -5 -12 -2 -15 2 -3 7 2 10 11 7 17 1 20 -8 4z"/>
<path d="M3788 2683 c6 -2 18 -2 25 0 6 3 1 5 -13 5 -14 0 -19 -2 -12 -5z"/>
<path d="M2206 2592 c-3 -5 16 -19 42 -31 61 -29 105 -67 186 -164 36 -44 66
-76 66 -73 0 11 -106 139 -148 180 -51 48 -138 101 -146 88z"/>
<path d="M837 2559 c7 -7 15 -10 18 -7 3 3 -2 9 -12 12 -14 6 -15 5 -6 -5z"/>
<path d="M2847 2462 c-25 -27 -22 -86 6 -114 12 -13 15 -16 7 -5 -24 30 -19
96 9 118 15 13 18 19 9 19 -8 0 -22 -8 -31 -18z"/>
<path d="M3337 2410 c10 -11 18 -20 19 -20 1 0 0 9 -3 20 -3 11 -12 20 -19 20
-11 0 -10 -5 3 -20z"/>
<path d="M4999 2395 c-1 -3 -3 -17 -4 -32 -1 -16 -15 -59 -29 -97 -15 -38 -25
-75 -22 -83 11 -26 33 -12 46 30 13 43 25 187 15 187 -3 0 -6 -2 -6 -5z"/>
<path d="M4955 2339 c-4 -6 -5 -12 -2 -15 2 -3 7 2 10 11 7 17 1 20 -8 4z"/>
<path d="M5035 2340 c3 -5 8 -10 11 -10 2 0 4 5 4 10 0 6 -5 10 -11 10 -5 0
-7 -4 -4 -10z"/>
<path d="M5321 2279 c-7 -30 -14 -62 -15 -71 -1 -10 -19 -33 -39 -53 -20 -19
-32 -35 -27 -35 14 0 89 70 102 94 11 21 11 21 -10 2 l-22 -19 16 52 c8 29 14
59 12 68 -2 8 -9 -9 -17 -38z"/>
<path d="M2510 2306 c0 -2 8 -10 18 -17 15 -13 16 -12 3 4 -13 16 -21 21 -21
13z"/>
<path d="M4884 2281 l27 -28 -21 -53 c-11 -29 -18 -55 -15 -58 11 -12 33 25
49 81 20 68 12 87 -37 87 l-31 0 28 -29z"/>
<path d="M5015 2215 c-18 -60 -17 -96 3 -103 8 -2 12 8 12 32 0 21 10 50 25
72 20 29 23 39 13 46 -27 16 -38 6 -53 -47z"/>
<path d="M3856 2101 c-3 -5 1 -12 10 -15 20 -8 29 -1 19 13 -8 13 -22 14 -29
2z"/>
<path d="M3422 1988 c-7 -7 -12 -19 -12 -28 0 -9 -7 -43 -15 -75 -26 -99 -26
-102 -4 -55 44 95 68 170 56 170 -7 0 -18 -5 -25 -12z"/>
<path d="M3721 1774 c-7 -8 -11 -17 -9 -20 3 -2 13 5 23 16 10 11 14 20 9 20
-5 -1 -15 -8 -23 -16z"/>
<path d="M1100 1388 c-7 -40 -21 -93 -31 -117 -24 -55 -24 -58 1 -36 22 20 44
89 55 167 10 77 -12 64 -25 -14z"/>
<path d="M1205 1368 c-11 -17 -27 -42 -35 -54 -20 -32 -7 -40 33 -20 34 15 47
38 47 84 0 32 -22 27 -45 -10z"/>
<path d="M1270 1373 c0 -36 13 -44 48 -31 39 15 40 21 7 36 -37 17 -55 15 -55
-5z"/>
<path d="M1453 1159 c-24 -17 -43 -35 -43 -40 0 -13 25 2 70 41 44 39 28 38
-27 -1z"/>
<path d="M889 1072 c-54 -54 -99 -106 -99 -115 0 -24 17 -21 25 4 7 22 132
150 172 177 24 15 30 32 12 32 -6 0 -55 -44 -110 -98z"/>
<path d="M5350 1156 c0 -3 25 -51 55 -108 67 -127 85 -177 94 -251 3 -32 10
-57 16 -57 13 0 7 85 -10 145 -18 60 -126 267 -143 273 -7 2 -12 1 -12 -2z"/>
<path d="M5066 1141 c-3 -4 34 -37 80 -74 l85 -68 -18 -29 c-9 -17 -21 -30
-25 -30 -11 0 -10 -37 4 -81 6 -22 17 -39 25 -39 8 0 39 -12 69 -27 30 -14 57
-23 60 -20 11 10 -16 128 -41 185 -34 73 -104 162 -135 168 -14 2 -42 8 -63
13 -20 5 -39 5 -41 2z"/>
<path d="M1322 1070 c-43 -44 -51 -58 -65 -125 -10 -42 -17 -88 -17 -103 0
-59 -45 -124 -148 -220 -121 -111 -209 -225 -266 -347 -44 -92 -91 -246 -82
-268 2 -7 5 -3 6 8 1 21 89 197 90 180 0 -5 9 8 20 30 11 22 33 54 50 72 16
18 30 36 30 40 0 5 34 45 75 90 81 88 223 198 319 248 45 23 62 38 67 60 12
42 3 47 -41 25 -47 -24 -50 -24 -50 -5 0 8 -7 15 -16 15 -18 0 -12 29 17 75
10 17 26 47 35 68 9 20 20 37 25 37 5 0 8 3 7 8 -1 4 4 19 10 33 13 32 15 44
13 92 -1 51 -19 48 -79 -13z"/>
<path d="M5119 1021 c17 -21 31 -44 31 -51 0 -9 4 -9 16 1 14 12 12 17 -26 51
-53 48 -60 48 -21 -1z"/>
<path d="M778 914 c-5 -4 -8 -42 -8 -84 l0 -76 -95 -83 c-110 -95 -129 -125
-128 -198 l1 -53 -106 -108 c-105 -105 -181 -215 -197 -284 -11 -45 8 -32 29
19 33 81 111 185 206 277 l92 89 -7 48 c-6 39 -3 55 14 82 20 32 111 124 179
179 l33 27 -3 87 c-2 47 -6 82 -10 78z"/>
<path d="M1085 860 c-3 -5 -1 -10 4 -10 6 0 11 5 11 10 0 6 -2 10 -4 10 -3 0
-8 -4 -11 -10z"/>
<path d="M979 763 c-60 -63 -89 -106 -89 -133 0 -13 -21 -43 -50 -72 -72 -72
-168 -203 -201 -272 -16 -33 -36 -90 -46 -128 -16 -61 -23 -74 -66 -109 -26
-23 -46 -43 -43 -46 3 -3 18 6 33 21 15 14 36 31 46 38 9 7 25 42 36 78 37
130 135 283 260 405 29 28 51 58 51 70 0 27 47 100 93 145 20 19 37 38 37 43
0 17 -18 4 -61 -40z"/>
<path d="M5090 778 c0 -17 57 -74 66 -65 3 3 -10 23 -30 43 -21 22 -36 31 -36
22z"/>
<path d="M5560 713 c0 -5 17 -26 36 -48 63 -71 79 -89 96 -117 26 -40 66 -185
73 -269 4 -41 11 -89 15 -107 9 -33 108 -172 123 -172 12 0 -11 40 -53 90 -52
64 -56 74 -70 185 -12 102 -47 225 -77 273 -22 34 -133 172 -139 172 -2 0 -4
-3 -4 -7z"/>
<path d="M5170 683 c1 -5 15 -17 33 -28 25 -16 37 -34 54 -88 12 -38 38 -90
58 -117 20 -27 56 -98 80 -157 23 -59 61 -145 83 -191 23 -46 43 -89 45 -95 2
-7 7 -9 11 -5 4 3 -21 69 -57 145 -35 76 -68 153 -72 172 -12 57 -33 97 -75
146 -25 29 -40 56 -40 73 -1 45 -35 107 -72 130 -38 23 -48 27 -48 15z"/>
<path d="M4833 237 c-120 -61 -129 -71 -157 -160 -16 -52 -20 -77 -12 -77 6 0
20 32 30 72 22 85 32 95 153 160 109 59 98 63 -14 5z"/>
<path d="M4870 33 l-55 -28 53 -3 c28 -2 75 -2 104 0 l52 3 -26 28 c-32 34
-58 34 -128 0z"/>
</g>
</svg>
